<svg width="1653" height="993" xmlns="http://www.w3.org/2000/svg" xmlns:xlink="http://www.w3.org/1999/xlink" xml:space="preserve" overflow="hidden"><defs><clipPath id="clip0"><rect x="2220" y="220" width="1653" height="993"/></clipPath><clipPath id="clip1"><rect x="2220" y="220" width="1650" height="990"/></clipPath><clipPath id="clip2"><rect x="2220" y="220" width="1650" height="990"/></clipPath><clipPath id="clip3"><rect x="2220" y="220" width="1650" height="990"/></clipPath><clipPath id="clip4"><rect x="2220" y="220" width="1650" height="990"/></clipPath><clipPath id="clip5"><rect x="2351" y="340" width="1452" height="768"/></clipPath><clipPath id="clip6"><rect x="2351" y="340" width="1452" height="768"/></clipPath><clipPath id="clip7"><rect x="2220" y="220" width="1650" height="990"/></clipPath><clipPath id="clip8"><rect x="2220" y="220" width="1650" height="990"/></clipPath><clipPath id="clip9"><rect x="2220" y="220" width="1650" height="990"/></clipPath><clipPath id="clip10"><rect x="2220" y="220" width="1650" height="990"/></clipPath><clipPath id="clip11"><rect x="2220" y="220" width="1650" height="990"/></clipPath><clipPath id="clip12"><rect x="2220" y="220" width="1650" height="990"/></clipPath><clipPath id="clip13"><rect x="2220" y="220" width="1650" height="990"/></clipPath><clipPath id="clip14"><rect x="2220" y="220" width="1650" height="990"/></clipPath><clipPath id="clip15"><rect x="2220" y="220" width="1650" height="990"/></clipPath><clipPath id="clip16"><rect x="2220" y="220" width="1650" height="990"/></clipPath><clipPath id="clip17"><rect x="2220" y="220" width="1650" height="990"/></clipPath><clipPath id="clip18"><rect x="2220" y="220" width="1650" height="990"/></clipPath><clipPath id="clip19"><rect x="2220" y="220" width="1650" height="990"/></clipPath><clipPath id="clip20"><rect x="2220" y="220" width="1650" height="990"/></clipPath><clipPath id="clip21"><rect x="2220" y="220" width="1650" height="990"/></clipPath><clipPath id="clip22"><rect x="2220" y="220" width="1650" height="990"/></clipPath><clipPath id="clip23"><rect x="2220" y="220" width="1650" height="990"/></clipPath><clipPath id="clip24"><rect x="2220" y="220" width="1650" height="990"/></clipPath><clipPath id="clip25"><rect x="2220" y="220" width="1650" height="990"/></clipPath></defs><g clip-path="url(#clip0)" transform="translate(-2220 -220)"><rect x="2221" y="221" width="1650" height="990" fill="#FFFFFF"/><g clip-path="url(#clip1)"><path d="M2351.5 995.533 3799.5 995.533M2351.5 886.529 3799.5 886.529M2351.5 777.526 3799.5 777.526M2351.5 667.522 3799.5 667.522M2351.5 558.518 3799.5 558.518M2351.5 449.515 3799.5 449.515M2351.5 340.5 3799.5 340.5" stroke="#D9D9D9" stroke-width="3.4375" stroke-linejoin="round" stroke-miterlimit="10" fill="none"/></g><g clip-path="url(#clip2)"><path d="M2558.58 340.5 2558.58 1104.5M2765.59 340.5 2765.59 1104.5M2972.6 340.5 2972.6 1104.5M3178.6 340.5 3178.6 1104.5M3385.61 340.5 3385.61 1104.5M3592.62 340.5 3592.62 1104.5M3799.5 340.5 3799.5 1104.5" stroke="#D9D9D9" stroke-width="3.4375" stroke-linejoin="round" stroke-miterlimit="10" fill="none"/></g><g clip-path="url(#clip3)"><path d="M0 0 0.000360892 764" stroke="#BFBFBF" stroke-width="3.4375" stroke-linejoin="round" stroke-miterlimit="10" fill="none" fill-rule="evenodd" transform="matrix(1 0 0 -1 2351.5 1104.5)"/></g><g clip-path="url(#clip4)"><path d="M2351.5 1104.5 3799.5 1104.5" stroke="#BFBFBF" stroke-width="3.4375" stroke-linejoin="round" stroke-miterlimit="10" fill="none" fill-rule="evenodd"/></g><g clip-path="url(#clip5)"><path d="M2786.5 536.5C2807.17 588.543 2827.83 628.717 2848.5 662.5" stroke="#5B9BD5" stroke-width="6.875" stroke-linecap="round" stroke-linejoin="round" stroke-miterlimit="10" fill="none"/></g><g clip-path="url(#clip6)"><path d="M2351.5 1104.5C2361.84 1100.86 2392.86 1096.32 2413.54 1082.68 2434.22 1069.04 2454.91 1047.22 2475.59 1022.67 2491.32 1004 2521.9 986.566 2537.63 935.39 2558.31 868.109 2578.99 711.728 2599.67 618.99 2620.35 526.252 2641.04 423.513 2661.72 378.963 2675.98 348.233 2709.49 333.5 2723.76 351.687 2744.44 378.054 2765.12 485.339 2785.8 537.163M2847.85 662.632C2868.53 696.272 2889.21 709 2909.89 739.004 2930.57 769.007 2951.25 816.285 2971.93 842.652 2992.62 869.018 3013.3 882.656 3033.98 897.204 3054.66 911.751 3075.34 916.297 3096.02 929.935 3116.7 943.572 3137.38 966.302 3158.06 979.031 3178.75 991.76 3199.43 1000.85 3220.11 1006.31 3240.79 1011.76 3261.47 1008.13 3282.15 1011.76 3302.83 1015.4 3323.51 1021.76 3344.2 1028.13 3364.88 1034.49 3385.56 1043.58 3406.24 1049.95 3426.92 1056.31 3447.6 1063.59 3468.28 1066.31 3488.96 1069.04 3509.64 1064.5 3530.33 1066.31 3551.01 1068.13 3571.69 1072.68 3592.37 1077.22 3613.05 1081.77 3633.73 1089.95 3654.41 1093.59 3675.09 1097.23 3695.77 1097.23 3716.46 1099.04 3737.14 1100.86 3757.82 1102.68 3778.5 1104.5" stroke="#5B9BD5" stroke-width="6.875" stroke-linecap="round" stroke-linejoin="round" stroke-miterlimit="10" fill="none"/></g><g clip-path="url(#clip7)"><path d="M2362.42 1104.4C2362.42 1110.47 2357.5 1115.4 2351.42 1115.4 2345.35 1115.4 2340.42 1110.47 2340.42 1104.4 2340.42 1098.32 2345.35 1093.4 2351.42 1093.4 2357.5 1093.4 2362.42 1098.32 2362.42 1104.4Z" stroke="#5B9BD5" stroke-width="3.4375" stroke-linejoin="round" stroke-miterlimit="10" fill="#5B9BD5"/><path d="M2424.42 1082.4C2424.42 1088.47 2419.5 1093.4 2413.42 1093.4 2407.35 1093.4 2402.42 1088.47 2402.42 1082.4 2402.42 1076.32 2407.35 1071.4 2413.42 1071.4 2419.5 1071.4 2424.42 1076.32 2424.42 1082.4Z" stroke="#5B9BD5" stroke-width="3.4375" stroke-linejoin="round" stroke-miterlimit="10" fill="#5B9BD5"/><path d="M2486.42 1022.4C2486.42 1028.47 2481.5 1033.4 2475.42 1033.4 2469.35 1033.4 2464.42 1028.47 2464.42 1022.4 2464.42 1016.32 2469.35 1011.4 2475.42 1011.4 2481.5 1011.4 2486.42 1016.32 2486.42 1022.4Z" stroke="#5B9BD5" stroke-width="3.4375" stroke-linejoin="round" stroke-miterlimit="10" fill="#5B9BD5"/><path d="M2548.42 935.396C2548.42 941.471 2543.5 946.396 2537.42 946.396 2531.35 946.396 2526.42 941.471 2526.42 935.396 2526.42 929.321 2531.35 924.397 2537.42 924.397 2543.5 924.397 2548.42 929.321 2548.42 935.396Z" stroke="#5B9BD5" stroke-width="3.4375" stroke-linejoin="round" stroke-miterlimit="10" fill="#5B9BD5"/><path d="M2610.42 618.396C2610.42 624.471 2605.5 629.396 2599.42 629.396 2593.35 629.396 2588.42 624.471 2588.42 618.396 2588.42 612.321 2593.35 607.396 2599.42 607.396 2605.5 607.396 2610.42 612.321 2610.42 618.396Z" stroke="#5B9BD5" stroke-width="3.4375" stroke-linejoin="round" stroke-miterlimit="10" fill="#5B9BD5"/><path d="M2672.42 378.396C2672.42 384.471 2667.5 389.396 2661.42 389.396 2655.35 389.396 2650.42 384.471 2650.42 378.396 2650.42 372.321 2655.35 367.396 2661.42 367.396 2667.5 367.396 2672.42 372.321 2672.42 378.396Z" stroke="#5B9BD5" stroke-width="3.4375" stroke-linejoin="round" stroke-miterlimit="10" fill="#5B9BD5"/><path d="M2735.42 351.396C2735.42 357.471 2730.5 362.396 2724.42 362.396 2718.35 362.396 2713.42 357.471 2713.42 351.396 2713.42 345.321 2718.35 340.397 2724.42 340.397 2730.5 340.397 2735.42 345.321 2735.42 351.396Z" stroke="#5B9BD5" stroke-width="3.4375" stroke-linejoin="round" stroke-miterlimit="10" fill="#5B9BD5"/><path d="M2797.42 536.396C2797.42 542.471 2792.5 547.396 2786.42 547.396 2780.35 547.396 2775.42 542.471 2775.42 536.396 2775.42 530.321 2780.35 525.396 2786.42 525.396 2792.5 525.396 2797.42 530.321 2797.42 536.396Z" stroke="#5B9BD5" stroke-width="3.4375" stroke-linejoin="round" stroke-miterlimit="10" fill="#5B9BD5"/><path d="M2921.42 738.396C2921.42 744.471 2916.5 749.396 2910.42 749.396 2904.35 749.396 2899.42 744.471 2899.42 738.396 2899.42 732.321 2904.35 727.396 2910.42 727.396 2916.5 727.396 2921.42 732.321 2921.42 738.396Z" stroke="#5B9BD5" stroke-width="3.4375" stroke-linejoin="round" stroke-miterlimit="10" fill="#5B9BD5"/><path d="M2983.42 842.396C2983.42 848.471 2978.5 853.396 2972.42 853.396 2966.35 853.396 2961.42 848.471 2961.42 842.396 2961.42 836.321 2966.35 831.396 2972.42 831.396 2978.5 831.396 2983.42 836.321 2983.42 842.396Z" stroke="#5B9BD5" stroke-width="3.4375" stroke-linejoin="round" stroke-miterlimit="10" fill="#5B9BD5"/><path d="M3045.42 897.396C3045.42 903.471 3040.5 908.396 3034.42 908.396 3028.35 908.396 3023.42 903.471 3023.42 897.396 3023.42 891.321 3028.35 886.396 3034.42 886.396 3040.5 886.396 3045.42 891.321 3045.42 897.396Z" stroke="#5B9BD5" stroke-width="3.4375" stroke-linejoin="round" stroke-miterlimit="10" fill="#5B9BD5"/><path d="M3107.42 929.396C3107.42 935.471 3102.5 940.396 3096.42 940.396 3090.35 940.396 3085.42 935.471 3085.42 929.396 3085.42 923.321 3090.35 918.396 3096.42 918.396 3102.5 918.396 3107.42 923.321 3107.42 929.396Z" stroke="#5B9BD5" stroke-width="3.4375" stroke-linejoin="round" stroke-miterlimit="10" fill="#5B9BD5"/><path d="M3169.42 979.396C3169.42 985.471 3164.5 990.396 3158.42 990.396 3152.35 990.396 3147.42 985.471 3147.42 979.396 3147.42 973.321 3152.35 968.397 3158.42 968.397 3164.5 968.397 3169.42 973.321 3169.42 979.396Z" stroke="#5B9BD5" stroke-width="3.4375" stroke-linejoin="round" stroke-miterlimit="10" fill="#5B9BD5"/><path d="M3231.42 1006.4C3231.42 1012.47 3226.5 1017.4 3220.42 1017.4 3214.35 1017.4 3209.42 1012.47 3209.42 1006.4 3209.42 1000.32 3214.35 995.396 3220.42 995.396 3226.5 995.396 3231.42 1000.32 3231.42 1006.4Z" stroke="#5B9BD5" stroke-width="3.4375" stroke-linejoin="round" stroke-miterlimit="10" fill="#5B9BD5"/><path d="M3293.42 1011.4C3293.42 1017.47 3288.5 1022.4 3282.42 1022.4 3276.35 1022.4 3271.42 1017.47 3271.42 1011.4 3271.42 1005.32 3276.35 1000.4 3282.42 1000.4 3288.5 1000.4 3293.42 1005.32 3293.42 1011.4Z" stroke="#5B9BD5" stroke-width="3.4375" stroke-linejoin="round" stroke-miterlimit="10" fill="#5B9BD5"/><path d="M3355.42 1028.4C3355.42 1034.47 3350.5 1039.4 3344.42 1039.4 3338.35 1039.4 3333.42 1034.47 3333.42 1028.4 3333.42 1022.32 3338.35 1017.4 3344.42 1017.4 3350.5 1017.4 3355.42 1022.32 3355.42 1028.4Z" stroke="#5B9BD5" stroke-width="3.4375" stroke-linejoin="round" stroke-miterlimit="10" fill="#5B9BD5"/><path d="M3417.42 1049.4C3417.42 1055.47 3412.5 1060.4 3406.42 1060.4 3400.35 1060.4 3395.42 1055.47 3395.42 1049.4 3395.42 1043.32 3400.35 1038.4 3406.42 1038.4 3412.5 1038.4 3417.42 1043.32 3417.42 1049.4Z" stroke="#5B9BD5" stroke-width="3.4375" stroke-linejoin="round" stroke-miterlimit="10" fill="#5B9BD5"/><path d="M3479.42 1066.4C3479.42 1072.47 3474.5 1077.4 3468.42 1077.4 3462.35 1077.4 3457.42 1072.47 3457.42 1066.4 3457.42 1060.32 3462.35 1055.4 3468.42 1055.4 3474.5 1055.4 3479.42 1060.32 3479.42 1066.4Z" stroke="#5B9BD5" stroke-width="3.4375" stroke-linejoin="round" stroke-miterlimit="10" fill="#5B9BD5"/><path d="M3541.42 1066.4C3541.42 1072.47 3536.5 1077.4 3530.42 1077.4 3524.35 1077.4 3519.42 1072.47 3519.42 1066.4 3519.42 1060.32 3524.35 1055.4 3530.42 1055.4 3536.5 1055.4 3541.42 1060.32 3541.42 1066.4Z" stroke="#5B9BD5" stroke-width="3.4375" stroke-linejoin="round" stroke-miterlimit="10" fill="#5B9BD5"/><path d="M3603.42 1077.4C3603.42 1083.47 3598.5 1088.4 3592.42 1088.4 3586.35 1088.4 3581.42 1083.47 3581.42 1077.4 3581.42 1071.32 3586.35 1066.4 3592.42 1066.4 3598.5 1066.4 3603.42 1071.32 3603.42 1077.4Z" stroke="#5B9BD5" stroke-width="3.4375" stroke-linejoin="round" stroke-miterlimit="10" fill="#5B9BD5"/><path d="M3665.42 1093.4C3665.42 1099.47 3660.5 1104.4 3654.42 1104.4 3648.35 1104.4 3643.42 1099.47 3643.42 1093.4 3643.42 1087.32 3648.35 1082.4 3654.42 1082.4 3660.5 1082.4 3665.42 1087.32 3665.42 1093.4Z" stroke="#5B9BD5" stroke-width="3.4375" stroke-linejoin="round" stroke-miterlimit="10" fill="#5B9BD5"/><path d="M3727.42 1099.4C3727.42 1105.47 3722.5 1110.4 3716.42 1110.4 3710.35 1110.4 3705.42 1105.47 3705.42 1099.4 3705.42 1093.32 3710.35 1088.4 3716.42 1088.4 3722.5 1088.4 3727.42 1093.32 3727.42 1099.4Z" stroke="#5B9BD5" stroke-width="3.4375" stroke-linejoin="round" stroke-miterlimit="10" fill="#5B9BD5"/><path d="M3789.42 1104.4C3789.42 1110.47 3784.5 1115.4 3778.42 1115.4 3772.35 1115.4 3767.42 1110.47 3767.42 1104.4 3767.42 1098.32 3772.35 1093.4 3778.42 1093.4 3784.5 1093.4 3789.42 1098.32 3789.42 1104.4Z" stroke="#5B9BD5" stroke-width="3.4375" stroke-linejoin="round" stroke-miterlimit="10" fill="#5B9BD5"/></g><g clip-path="url(#clip8)"><path d="M2859 662C2859 668.075 2854.08 672.999 2848 672.999 2841.93 672.999 2837 668.075 2837 662 2837 655.924 2841.93 651 2848 651 2854.08 651 2859 655.924 2859 662Z" stroke="#5B9BD5" stroke-width="3.4375" stroke-linejoin="round" stroke-miterlimit="10" fill="#5B9BD5"/></g><g clip-path="url(#clip9)"><text fill="#595959" font-family="Calibri,Calibri_MSFontService,sans-serif" font-weight="400" font-size="41" transform="matrix(1 0 0 1 2292.52 1116)">0</text></g><g clip-path="url(#clip10)"><text fill="#595959" font-family="Calibri,Calibri_MSFontService,sans-serif" font-weight="400" font-size="41" transform="matrix(1 0 0 1 2271.62 1007)">20</text></g><g clip-path="url(#clip11)"><text fill="#595959" font-family="Calibri,Calibri_MSFontService,sans-serif" font-weight="400" font-size="41" transform="matrix(1 0 0 1 2271.62 898)">40</text></g><g clip-path="url(#clip12)"><text fill="#595959" font-family="Calibri,Calibri_MSFontService,sans-serif" font-weight="400" font-size="41" transform="matrix(1 0 0 1 2271.62 789)">60</text></g><g clip-path="url(#clip13)"><text fill="#595959" font-family="Calibri,Calibri_MSFontService,sans-serif" font-weight="400" font-size="41" transform="matrix(1 0 0 1 2271.62 679)">80</text></g><g clip-path="url(#clip14)"><text fill="#595959" font-family="Calibri,Calibri_MSFontService,sans-serif" font-weight="400" font-size="41" transform="matrix(1 0 0 1 2250.72 570)">100</text></g><g clip-path="url(#clip15)"><text fill="#595959" font-family="Calibri,Calibri_MSFontService,sans-serif" font-weight="400" font-size="41" transform="matrix(1 0 0 1 2250.72 461)">120</text></g><g clip-path="url(#clip16)"><text fill="#595959" font-family="Calibri,Calibri_MSFontService,sans-serif" font-weight="400" font-size="41" transform="matrix(1 0 0 1 2250.72 352)">140</text></g><g clip-path="url(#clip17)"><text fill="#595959" font-family="Calibri,Calibri_MSFontService,sans-serif" font-weight="400" font-size="41" transform="matrix(1 0 0 1 2341.23 1170)">0</text></g><g clip-path="url(#clip18)"><text fill="#595959" font-family="Calibri,Calibri_MSFontService,sans-serif" font-weight="400" font-size="41" transform="matrix(1 0 0 1 2537.63 1170)">10</text></g><g clip-path="url(#clip19)"><text fill="#595959" font-family="Calibri,Calibri_MSFontService,sans-serif" font-weight="400" font-size="41" transform="matrix(1 0 0 1 2744.47 1170)">20</text></g><g clip-path="url(#clip20)"><text fill="#595959" font-family="Calibri,Calibri_MSFontService,sans-serif" font-weight="400" font-size="41" transform="matrix(1 0 0 1 2951.32 1170)">30</text></g><g clip-path="url(#clip21)"><text fill="#595959" font-family="Calibri,Calibri_MSFontService,sans-serif" font-weight="400" font-size="41" transform="matrix(1 0 0 1 3158.17 1170)">40</text></g><g clip-path="url(#clip22)"><text fill="#595959" font-family="Calibri,Calibri_MSFontService,sans-serif" font-weight="400" font-size="41" transform="matrix(1 0 0 1 3365.01 1170)">50</text></g><g clip-path="url(#clip23)"><text fill="#595959" font-family="Calibri,Calibri_MSFontService,sans-serif" font-weight="400" font-size="41" transform="matrix(1 0 0 1 3571.86 1170)">60</text></g><g clip-path="url(#clip24)"><text fill="#595959" font-family="Calibri,Calibri_MSFontService,sans-serif" font-weight="400" font-size="41" transform="matrix(1 0 0 1 3778.71 1170)">70</text></g><g clip-path="url(#clip25)"><text fill="#595959" font-family="Calibri,Calibri_MSFontService,sans-serif" font-weight="400" font-size="64" transform="matrix(1 0 0 1 2975.27 303)">q(3,t)</text></g><rect x="2221.5" y="221.5" width="1650" height="990" stroke="#D9D9D9" stroke-width="3.4375" stroke-linejoin="round" stroke-miterlimit="10" fill="none"/></g></svg>