<svg width="1653" height="993" xmlns="http://www.w3.org/2000/svg" xmlns:xlink="http://www.w3.org/1999/xlink" xml:space="preserve" overflow="hidden"><defs><clipPath id="clip0"><rect x="2226" y="118" width="1653" height="993"/></clipPath><clipPath id="clip1"><rect x="2226" y="119" width="1650" height="990"/></clipPath><clipPath id="clip2"><rect x="2226" y="119" width="1650" height="990"/></clipPath><clipPath id="clip3"><rect x="2226" y="119" width="1650" height="990"/></clipPath><clipPath id="clip4"><rect x="2226" y="119" width="1650" height="990"/></clipPath><clipPath id="clip5"><rect x="2357" y="252" width="1452" height="754"/></clipPath><clipPath id="clip6"><rect x="2357" y="252" width="1452" height="754"/></clipPath><clipPath id="clip7"><rect x="2226" y="119" width="1650" height="990"/></clipPath><clipPath id="clip8"><rect x="2226" y="119" width="1650" height="990"/></clipPath><clipPath id="clip9"><rect x="2226" y="119" width="1650" height="990"/></clipPath><clipPath id="clip10"><rect x="2226" y="119" width="1650" height="990"/></clipPath><clipPath id="clip11"><rect x="2226" y="119" width="1650" height="990"/></clipPath><clipPath id="clip12"><rect x="2226" y="119" width="1650" height="990"/></clipPath><clipPath id="clip13"><rect x="2226" y="119" width="1650" height="990"/></clipPath><clipPath id="clip14"><rect x="2226" y="119" width="1650" height="990"/></clipPath><clipPath id="clip15"><rect x="2226" y="119" width="1650" height="990"/></clipPath><clipPath id="clip16"><rect x="2226" y="119" width="1650" height="990"/></clipPath><clipPath id="clip17"><rect x="2226" y="119" width="1650" height="990"/></clipPath><clipPath id="clip18"><rect x="2226" y="119" width="1650" height="990"/></clipPath><clipPath id="clip19"><rect x="2226" y="119" width="1650" height="990"/></clipPath><clipPath id="clip20"><rect x="2226" y="119" width="1650" height="990"/></clipPath><clipPath id="clip21"><rect x="2226" y="119" width="1650" height="990"/></clipPath><clipPath id="clip22"><rect x="2226" y="119" width="1650" height="990"/></clipPath><clipPath id="clip23"><rect x="2226" y="119" width="1650" height="990"/></clipPath><clipPath id="clip24"><rect x="2226" y="119" width="1650" height="990"/></clipPath><clipPath id="clip25"><rect x="2226" y="119" width="1650" height="990"/></clipPath></defs><g clip-path="url(#clip0)" transform="translate(-2226 -118)"><rect x="2227" y="119" width="1650" height="990" fill="#FFFFFF"/><g clip-path="url(#clip1)"><path d="M2357.5 895.53 3805.5 895.53M2357.5 788.526 3805.5 788.526M2357.5 681.523 3805.5 681.523M2357.5 574.519 3805.5 574.519M2357.5 466.516 3805.5 466.516M2357.5 359.512 3805.5 359.512M2357.5 252.5 3805.5 252.5" stroke="#D9D9D9" stroke-width="3.4375" stroke-linejoin="round" stroke-miterlimit="10" fill="none"/></g><g clip-path="url(#clip2)"><path d="M2564.58 252.5 2564.58 1002.5M2771.59 252.5 2771.59 1002.5M2978.6 252.5 2978.6 1002.5M3184.6 252.5 3184.6 1002.5M3391.61 252.5 3391.61 1002.5M3598.62 252.5 3598.62 1002.5M3805.5 252.5 3805.5 1002.5" stroke="#D9D9D9" stroke-width="3.4375" stroke-linejoin="round" stroke-miterlimit="10" fill="none"/></g><g clip-path="url(#clip3)"><path d="M0 0 0.000360892 750" stroke="#BFBFBF" stroke-width="3.4375" stroke-linejoin="round" stroke-miterlimit="10" fill="none" fill-rule="evenodd" transform="matrix(1 0 0 -1 2357.5 1002.5)"/></g><g clip-path="url(#clip4)"><path d="M2357.5 1002.5 3805.5 1002.5" stroke="#BFBFBF" stroke-width="3.4375" stroke-linejoin="round" stroke-miterlimit="10" fill="none" fill-rule="evenodd"/></g><g clip-path="url(#clip5)"><path d="M2792.5 445.5C2813.17 496.304 2833.83 535.522 2854.5 568.5" stroke="#5B9BD5" stroke-width="6.875" stroke-linecap="round" stroke-linejoin="round" stroke-miterlimit="10" fill="none"/></g><g clip-path="url(#clip6)"><path d="M2357.5 1002.5C2367.84 998.93 2398.86 994.468 2419.54 981.082 2440.22 967.695 2460.91 946.277 2481.59 922.181 2497.39 903.769 2527.83 886.97 2543.63 836.508 2564.31 770.468 2584.99 616.97 2605.67 525.942 2626.35 434.914 2647.04 334.069 2667.72 290.34 2682.16 259.812 2715.32 245.5 2729.76 263.567 2750.44 289.448 2771.12 394.754 2791.8 445.623M2853.85 568.779C2874.53 601.799 2895.21 614.292 2915.89 643.743 2936.57 673.193 2957.25 719.599 2977.93 745.48 2998.62 771.36 3019.3 784.747 3039.98 799.026 3060.66 813.304 3081.34 817.766 3102.02 831.153 3122.7 844.539 3143.38 866.85 3164.06 879.344 3184.75 891.838 3205.43 900.763 3226.11 906.117 3246.79 911.472 3267.47 907.902 3288.15 911.472 3308.83 915.041 3329.51 921.288 3350.2 927.536 3370.88 933.783 3391.56 942.707 3412.24 948.954 3432.92 955.201 3453.6 962.34 3474.28 965.018 3494.96 967.695 3515.64 963.233 3536.33 965.018 3557.01 966.802 3577.69 971.265 3598.37 975.727 3619.05 980.189 3639.73 988.221 3660.41 991.791 3681.09 995.36 3701.77 995.36 3722.46 997.145 3743.14 998.93 3763.82 1000.71 3784.5 1002.5" stroke="#5B9BD5" stroke-width="6.875" stroke-linecap="round" stroke-linejoin="round" stroke-miterlimit="10" fill="none"/></g><g clip-path="url(#clip7)"><path d="M2368.4 1002.77C2368.4 1008.84 2363.48 1013.77 2357.4 1013.77 2351.33 1013.77 2346.4 1008.84 2346.4 1002.77 2346.4 996.691 2351.33 991.766 2357.4 991.766 2363.48 991.766 2368.4 996.691 2368.4 1002.77Z" stroke="#5B9BD5" stroke-width="3.4375" stroke-linejoin="round" stroke-miterlimit="10" fill="#5B9BD5"/><path d="M2430.4 981.766C2430.4 987.84 2425.48 992.765 2419.4 992.765 2413.33 992.765 2408.4 987.84 2408.4 981.766 2408.4 975.691 2413.33 970.766 2419.4 970.766 2425.48 970.766 2430.4 975.691 2430.4 981.766Z" stroke="#5B9BD5" stroke-width="3.4375" stroke-linejoin="round" stroke-miterlimit="10" fill="#5B9BD5"/><path d="M2492.4 922.766C2492.4 928.841 2487.48 933.765 2481.4 933.765 2475.33 933.765 2470.4 928.841 2470.4 922.766 2470.4 916.691 2475.33 911.766 2481.4 911.766 2487.48 911.766 2492.4 916.691 2492.4 922.766Z" stroke="#5B9BD5" stroke-width="3.4375" stroke-linejoin="round" stroke-miterlimit="10" fill="#5B9BD5"/><path d="M2554.4 836.766C2554.4 842.841 2549.48 847.765 2543.4 847.765 2537.33 847.765 2532.4 842.841 2532.4 836.766 2532.4 830.691 2537.33 825.766 2543.4 825.766 2549.48 825.766 2554.4 830.691 2554.4 836.766Z" stroke="#5B9BD5" stroke-width="3.4375" stroke-linejoin="round" stroke-miterlimit="10" fill="#5B9BD5"/><path d="M2616.4 525.766C2616.4 531.841 2611.48 536.765 2605.4 536.765 2599.33 536.765 2594.4 531.841 2594.4 525.766 2594.4 519.691 2599.33 514.766 2605.4 514.766 2611.48 514.766 2616.4 519.691 2616.4 525.766Z" stroke="#5B9BD5" stroke-width="3.4375" stroke-linejoin="round" stroke-miterlimit="10" fill="#5B9BD5"/><path d="M2678.4 290.766C2678.4 296.841 2673.48 301.765 2667.4 301.765 2661.33 301.765 2656.4 296.841 2656.4 290.766 2656.4 284.691 2661.33 279.766 2667.4 279.766 2673.48 279.766 2678.4 284.691 2678.4 290.766Z" stroke="#5B9BD5" stroke-width="3.4375" stroke-linejoin="round" stroke-miterlimit="10" fill="#5B9BD5"/><path d="M2740.4 263.766C2740.4 269.841 2735.48 274.765 2729.4 274.765 2723.33 274.765 2718.4 269.841 2718.4 263.766 2718.4 257.691 2723.33 252.766 2729.4 252.766 2735.48 252.766 2740.4 257.691 2740.4 263.766Z" stroke="#5B9BD5" stroke-width="3.4375" stroke-linejoin="round" stroke-miterlimit="10" fill="#5B9BD5"/><path d="M2803.4 445.766C2803.4 451.841 2798.48 456.765 2792.4 456.765 2786.33 456.765 2781.4 451.841 2781.4 445.766 2781.4 439.691 2786.33 434.766 2792.4 434.766 2798.48 434.766 2803.4 439.691 2803.4 445.766Z" stroke="#5B9BD5" stroke-width="3.4375" stroke-linejoin="round" stroke-miterlimit="10" fill="#5B9BD5"/><path d="M2927.4 643.766C2927.4 649.841 2922.48 654.765 2916.4 654.765 2910.33 654.765 2905.4 649.841 2905.4 643.766 2905.4 637.691 2910.33 632.766 2916.4 632.766 2922.48 632.766 2927.4 637.691 2927.4 643.766Z" stroke="#5B9BD5" stroke-width="3.4375" stroke-linejoin="round" stroke-miterlimit="10" fill="#5B9BD5"/><path d="M2989.4 745.766C2989.4 751.841 2984.48 756.765 2978.4 756.765 2972.33 756.765 2967.4 751.841 2967.4 745.766 2967.4 739.691 2972.33 734.766 2978.4 734.766 2984.48 734.766 2989.4 739.691 2989.4 745.766Z" stroke="#5B9BD5" stroke-width="3.4375" stroke-linejoin="round" stroke-miterlimit="10" fill="#5B9BD5"/><path d="M3051.4 799.766C3051.4 805.841 3046.48 810.765 3040.4 810.765 3034.33 810.765 3029.4 805.841 3029.4 799.766 3029.4 793.691 3034.33 788.766 3040.4 788.766 3046.48 788.766 3051.4 793.691 3051.4 799.766Z" stroke="#5B9BD5" stroke-width="3.4375" stroke-linejoin="round" stroke-miterlimit="10" fill="#5B9BD5"/><path d="M3113.4 831.766C3113.4 837.841 3108.48 842.765 3102.4 842.765 3096.33 842.765 3091.4 837.841 3091.4 831.766 3091.4 825.691 3096.33 820.766 3102.4 820.766 3108.48 820.766 3113.4 825.691 3113.4 831.766Z" stroke="#5B9BD5" stroke-width="3.4375" stroke-linejoin="round" stroke-miterlimit="10" fill="#5B9BD5"/><path d="M3175.4 879.766C3175.4 885.841 3170.48 890.765 3164.4 890.765 3158.33 890.765 3153.4 885.841 3153.4 879.766 3153.4 873.691 3158.33 868.766 3164.4 868.766 3170.48 868.766 3175.4 873.691 3175.4 879.766Z" stroke="#5B9BD5" stroke-width="3.4375" stroke-linejoin="round" stroke-miterlimit="10" fill="#5B9BD5"/><path d="M3237.4 906.766C3237.4 912.841 3232.48 917.765 3226.4 917.765 3220.33 917.765 3215.4 912.841 3215.4 906.766 3215.4 900.691 3220.33 895.766 3226.4 895.766 3232.48 895.766 3237.4 900.691 3237.4 906.766Z" stroke="#5B9BD5" stroke-width="3.4375" stroke-linejoin="round" stroke-miterlimit="10" fill="#5B9BD5"/><path d="M3299.4 911.766C3299.4 917.841 3294.48 922.765 3288.4 922.765 3282.33 922.765 3277.4 917.841 3277.4 911.766 3277.4 905.691 3282.33 900.766 3288.4 900.766 3294.48 900.766 3299.4 905.691 3299.4 911.766Z" stroke="#5B9BD5" stroke-width="3.4375" stroke-linejoin="round" stroke-miterlimit="10" fill="#5B9BD5"/><path d="M3361.4 927.766C3361.4 933.84 3356.48 938.765 3350.4 938.765 3344.33 938.765 3339.4 933.84 3339.4 927.766 3339.4 921.691 3344.33 916.766 3350.4 916.766 3356.48 916.766 3361.4 921.691 3361.4 927.766Z" stroke="#5B9BD5" stroke-width="3.4375" stroke-linejoin="round" stroke-miterlimit="10" fill="#5B9BD5"/><path d="M3423.4 949.766C3423.4 955.84 3418.48 960.765 3412.4 960.765 3406.33 960.765 3401.4 955.84 3401.4 949.766 3401.4 943.691 3406.33 938.766 3412.4 938.766 3418.48 938.766 3423.4 943.691 3423.4 949.766Z" stroke="#5B9BD5" stroke-width="3.4375" stroke-linejoin="round" stroke-miterlimit="10" fill="#5B9BD5"/><path d="M3485.4 965.766C3485.4 971.841 3480.48 976.765 3474.4 976.765 3468.33 976.765 3463.4 971.841 3463.4 965.766 3463.4 959.691 3468.33 954.766 3474.4 954.766 3480.48 954.766 3485.4 959.691 3485.4 965.766Z" stroke="#5B9BD5" stroke-width="3.4375" stroke-linejoin="round" stroke-miterlimit="10" fill="#5B9BD5"/><path d="M3547.4 965.766C3547.4 971.841 3542.48 976.765 3536.4 976.765 3530.33 976.765 3525.4 971.841 3525.4 965.766 3525.4 959.691 3530.33 954.766 3536.4 954.766 3542.48 954.766 3547.4 959.691 3547.4 965.766Z" stroke="#5B9BD5" stroke-width="3.4375" stroke-linejoin="round" stroke-miterlimit="10" fill="#5B9BD5"/><path d="M3609.4 976.766C3609.4 982.841 3604.48 987.765 3598.4 987.765 3592.33 987.765 3587.4 982.841 3587.4 976.766 3587.4 970.691 3592.33 965.766 3598.4 965.766 3604.48 965.766 3609.4 970.691 3609.4 976.766Z" stroke="#5B9BD5" stroke-width="3.4375" stroke-linejoin="round" stroke-miterlimit="10" fill="#5B9BD5"/><path d="M3671.4 992.766C3671.4 998.84 3666.48 1003.77 3660.4 1003.77 3654.33 1003.77 3649.4 998.84 3649.4 992.766 3649.4 986.691 3654.33 981.766 3660.4 981.766 3666.48 981.766 3671.4 986.691 3671.4 992.766Z" stroke="#5B9BD5" stroke-width="3.4375" stroke-linejoin="round" stroke-miterlimit="10" fill="#5B9BD5"/><path d="M3733.4 997.766C3733.4 1003.84 3728.48 1008.77 3722.4 1008.77 3716.33 1008.77 3711.4 1003.84 3711.4 997.766 3711.4 991.691 3716.33 986.766 3722.4 986.766 3728.48 986.766 3733.4 991.691 3733.4 997.766Z" stroke="#5B9BD5" stroke-width="3.4375" stroke-linejoin="round" stroke-miterlimit="10" fill="#5B9BD5"/><path d="M3795.4 1002.77C3795.4 1008.84 3790.48 1013.77 3784.4 1013.77 3778.33 1013.77 3773.4 1008.84 3773.4 1002.77 3773.4 996.691 3778.33 991.766 3784.4 991.766 3790.48 991.766 3795.4 996.691 3795.4 1002.77Z" stroke="#5B9BD5" stroke-width="3.4375" stroke-linejoin="round" stroke-miterlimit="10" fill="#5B9BD5"/></g><g clip-path="url(#clip8)"><path d="M2865 568C2865 574.075 2860.07 579 2854 579 2847.93 579 2843 574.075 2843 568 2843 561.925 2847.93 557 2854 557 2860.07 557 2865 561.925 2865 568Z" stroke="#5B9BD5" stroke-width="3.4375" stroke-linejoin="round" stroke-miterlimit="10" fill="#5B9BD5"/></g><g clip-path="url(#clip9)"><text fill="#595959" font-family="Calibri,Calibri_MSFontService,sans-serif" font-weight="400" font-size="41" transform="matrix(1 0 0 1 2298.49 1014)">0</text></g><g clip-path="url(#clip10)"><text fill="#595959" font-family="Calibri,Calibri_MSFontService,sans-serif" font-weight="400" font-size="41" transform="matrix(1 0 0 1 2277.59 907)">20</text></g><g clip-path="url(#clip11)"><text fill="#595959" font-family="Calibri,Calibri_MSFontService,sans-serif" font-weight="400" font-size="41" transform="matrix(1 0 0 1 2277.59 800)">40</text></g><g clip-path="url(#clip12)"><text fill="#595959" font-family="Calibri,Calibri_MSFontService,sans-serif" font-weight="400" font-size="41" transform="matrix(1 0 0 1 2277.59 693)">60</text></g><g clip-path="url(#clip13)"><text fill="#595959" font-family="Calibri,Calibri_MSFontService,sans-serif" font-weight="400" font-size="41" transform="matrix(1 0 0 1 2277.59 586)">80</text></g><g clip-path="url(#clip14)"><text fill="#595959" font-family="Calibri,Calibri_MSFontService,sans-serif" font-weight="400" font-size="41" transform="matrix(1 0 0 1 2256.69 479)">100</text></g><g clip-path="url(#clip15)"><text fill="#595959" font-family="Calibri,Calibri_MSFontService,sans-serif" font-weight="400" font-size="41" transform="matrix(1 0 0 1 2256.69 371)">120</text></g><g clip-path="url(#clip16)"><text fill="#595959" font-family="Calibri,Calibri_MSFontService,sans-serif" font-weight="400" font-size="41" transform="matrix(1 0 0 1 2256.69 264)">140</text></g><g clip-path="url(#clip17)"><text fill="#595959" font-family="Calibri,Calibri_MSFontService,sans-serif" font-weight="400" font-size="41" transform="matrix(1 0 0 1 2347.21 1068)">0</text></g><g clip-path="url(#clip18)"><text fill="#595959" font-family="Calibri,Calibri_MSFontService,sans-serif" font-weight="400" font-size="41" transform="matrix(1 0 0 1 2543.61 1068)">10</text></g><g clip-path="url(#clip19)"><text fill="#595959" font-family="Calibri,Calibri_MSFontService,sans-serif" font-weight="400" font-size="41" transform="matrix(1 0 0 1 2750.45 1068)">20</text></g><g clip-path="url(#clip20)"><text fill="#595959" font-family="Calibri,Calibri_MSFontService,sans-serif" font-weight="400" font-size="41" transform="matrix(1 0 0 1 2957.3 1068)">30</text></g><g clip-path="url(#clip21)"><text fill="#595959" font-family="Calibri,Calibri_MSFontService,sans-serif" font-weight="400" font-size="41" transform="matrix(1 0 0 1 3164.15 1068)">40</text></g><g clip-path="url(#clip22)"><text fill="#595959" font-family="Calibri,Calibri_MSFontService,sans-serif" font-weight="400" font-size="41" transform="matrix(1 0 0 1 3370.99 1068)">50</text></g><g clip-path="url(#clip23)"><text fill="#595959" font-family="Calibri,Calibri_MSFontService,sans-serif" font-weight="400" font-size="41" transform="matrix(1 0 0 1 3577.84 1068)">60</text></g><g clip-path="url(#clip24)"><text fill="#595959" font-family="Calibri,Calibri_MSFontService,sans-serif" font-weight="400" font-size="41" transform="matrix(1 0 0 1 3784.69 1068)">70</text></g><g clip-path="url(#clip25)"><text fill="#595959" font-family="Calibri,Calibri_MSFontService,sans-serif" font-weight="400" font-size="64" transform="matrix(1 0 0 1 2981.25 215)">q(3,t)</text></g><rect x="2227.5" y="119.5" width="1650" height="990" stroke="#D9D9D9" stroke-width="3.4375" stroke-linejoin="round" stroke-miterlimit="10" fill="none"/></g></svg>