<svg width="1653" height="993" xmlns="http://www.w3.org/2000/svg" xmlns:xlink="http://www.w3.org/1999/xlink" xml:space="preserve" overflow="hidden"><defs><clipPath id="clip0"><rect x="3876" y="217" width="1653" height="993"/></clipPath><clipPath id="clip1"><rect x="3876" y="217" width="1650" height="990"/></clipPath><clipPath id="clip2"><rect x="3876" y="217" width="1650" height="990"/></clipPath><clipPath id="clip3"><rect x="3876" y="217" width="1650" height="990"/></clipPath><clipPath id="clip4"><rect x="3876" y="217" width="1650" height="990"/></clipPath><clipPath id="clip5"><rect x="4003" y="332" width="1451" height="773"/></clipPath><clipPath id="clip6"><rect x="3876" y="217" width="1650" height="990"/></clipPath><clipPath id="clip7"><rect x="3876" y="217" width="1650" height="990"/></clipPath><clipPath id="clip8"><rect x="3876" y="217" width="1650" height="990"/></clipPath><clipPath id="clip9"><rect x="3876" y="217" width="1650" height="990"/></clipPath><clipPath id="clip10"><rect x="3876" y="217" width="1650" height="990"/></clipPath><clipPath id="clip11"><rect x="3876" y="217" width="1650" height="990"/></clipPath><clipPath id="clip12"><rect x="3876" y="217" width="1650" height="990"/></clipPath><clipPath id="clip13"><rect x="3876" y="217" width="1650" height="990"/></clipPath><clipPath id="clip14"><rect x="3876" y="217" width="1650" height="990"/></clipPath><clipPath id="clip15"><rect x="3876" y="217" width="1650" height="990"/></clipPath><clipPath id="clip16"><rect x="3876" y="217" width="1650" height="990"/></clipPath><clipPath id="clip17"><rect x="3876" y="217" width="1650" height="990"/></clipPath><clipPath id="clip18"><rect x="3876" y="217" width="1650" height="990"/></clipPath><clipPath id="clip19"><rect x="3876" y="217" width="1650" height="990"/></clipPath><clipPath id="clip20"><rect x="3876" y="217" width="1650" height="990"/></clipPath><clipPath id="clip21"><rect x="3876" y="217" width="1650" height="990"/></clipPath><clipPath id="clip22"><rect x="3876" y="217" width="1650" height="990"/></clipPath><clipPath id="clip23"><rect x="3876" y="217" width="1650" height="990"/></clipPath><clipPath id="clip24"><rect x="3876" y="217" width="1650" height="990"/></clipPath><clipPath id="clip25"><rect x="3876" y="217" width="1650" height="990"/></clipPath></defs><g clip-path="url(#clip0)" transform="translate(-3876 -217)"><rect x="3877" y="218" width="1650" height="990" fill="#FFFFFF"/><g clip-path="url(#clip1)"><path d="M4003.5 991.533 5451.5 991.533M4003.5 881.529 5451.5 881.529M4003.5 772.526 5451.5 772.526M4003.5 662.522 5451.5 662.522M4003.5 552.518 5451.5 552.518M4003.5 442.515 5451.5 442.515M4003.5 332.5 5451.5 332.5" stroke="#D9D9D9" stroke-width="3.4375" stroke-linejoin="round" stroke-miterlimit="10" fill="none"/></g><g clip-path="url(#clip2)"><path d="M4209.64 332.5 4209.64 1101.5M4416.65 332.5 4416.65 1101.5M4623.65 332.5 4623.65 1101.5M4830.66 332.5 4830.66 1101.5M5037.67 332.5 5037.67 1101.5M5243.67 332.5 5243.67 1101.5M5451.5 332.5 5451.5 1101.5" stroke="#D9D9D9" stroke-width="3.4375" stroke-linejoin="round" stroke-miterlimit="10" fill="none"/></g><g clip-path="url(#clip3)"><path d="M0 0 0.000360892 769" stroke="#BFBFBF" stroke-width="3.4375" stroke-linejoin="round" stroke-miterlimit="10" fill="none" fill-rule="evenodd" transform="matrix(1 0 0 -1 4003.5 1101.5)"/></g><g clip-path="url(#clip4)"><path d="M4003.5 1101.5 5451.5 1101.5" stroke="#BFBFBF" stroke-width="3.4375" stroke-linejoin="round" stroke-miterlimit="10" fill="none" fill-rule="evenodd"/></g><g clip-path="url(#clip5)"><path d="M4003.5 1101.5C4044.33 1083.43 4086.76 1100.79 4127.59 1046.59 4168.95 991.676 4210.32 887.344 4251.68 772.03 4293.05 656.716 4334.41 384.903 4375.77 354.702 4417.14 324.5 4458.5 519.436 4499.86 590.822 4541.23 662.207 4582.59 729.931 4623.95 783.013 4665.32 836.094 4706.68 875.447 4748.05 909.309 4789.41 943.171 4830.77 968.796 4872.14 986.185 4913.5 1003.57 4954.86 1002.66 4996.23 1013.64 5037.59 1024.62 5078.95 1042.93 5120.32 1052.08 5161.68 1061.23 5203.04 1062.15 5244.41 1068.55 5285.77 1074.96 5327.14 1083.2 5368.5 1090.52" stroke="#5B9BD5" stroke-width="6.875" stroke-linecap="round" stroke-linejoin="round" stroke-miterlimit="10" fill="none"/></g><g clip-path="url(#clip6)"><path d="M4014.4 1101.41C4014.4 1107.48 4009.48 1112.41 4003.4 1112.41 3997.33 1112.41 3992.4 1107.48 3992.4 1101.41 3992.4 1095.33 3997.33 1090.41 4003.4 1090.41 4009.48 1090.41 4014.4 1095.33 4014.4 1101.41Z" stroke="#5B9BD5" stroke-width="3.4375" stroke-linejoin="round" stroke-miterlimit="10" fill="#5B9BD5"/><path d="M4138.4 1046.41C4138.4 1052.48 4133.48 1057.41 4127.4 1057.41 4121.33 1057.41 4116.4 1052.48 4116.4 1046.41 4116.4 1040.33 4121.33 1035.41 4127.4 1035.41 4133.48 1035.41 4138.4 1040.33 4138.4 1046.41Z" stroke="#5B9BD5" stroke-width="3.4375" stroke-linejoin="round" stroke-miterlimit="10" fill="#5B9BD5"/><path d="M4262.4 772.407C4262.4 778.482 4257.48 783.406 4251.4 783.406 4245.33 783.406 4240.4 778.482 4240.4 772.407 4240.4 766.332 4245.33 761.407 4251.4 761.407 4257.48 761.407 4262.4 766.332 4262.4 772.407Z" stroke="#5B9BD5" stroke-width="3.4375" stroke-linejoin="round" stroke-miterlimit="10" fill="#5B9BD5"/><path d="M4386.4 354.407C4386.4 360.482 4381.48 365.406 4375.4 365.406 4369.33 365.406 4364.4 360.482 4364.4 354.407 4364.4 348.332 4369.33 343.407 4375.4 343.407 4381.48 343.407 4386.4 348.332 4386.4 354.407Z" stroke="#5B9BD5" stroke-width="3.4375" stroke-linejoin="round" stroke-miterlimit="10" fill="#5B9BD5"/><path d="M4510.4 590.407C4510.4 596.482 4505.48 601.407 4499.4 601.407 4493.33 601.407 4488.4 596.482 4488.4 590.407 4488.4 584.332 4493.33 579.407 4499.4 579.407 4505.48 579.407 4510.4 584.332 4510.4 590.407Z" stroke="#5B9BD5" stroke-width="3.4375" stroke-linejoin="round" stroke-miterlimit="10" fill="#5B9BD5"/><path d="M4634.4 783.407C4634.4 789.482 4629.48 794.406 4623.4 794.406 4617.33 794.406 4612.4 789.482 4612.4 783.407 4612.4 777.332 4617.33 772.407 4623.4 772.407 4629.48 772.407 4634.4 777.332 4634.4 783.407Z" stroke="#5B9BD5" stroke-width="3.4375" stroke-linejoin="round" stroke-miterlimit="10" fill="#5B9BD5"/><path d="M4758.4 909.407C4758.4 915.482 4753.48 920.407 4747.4 920.407 4741.33 920.407 4736.4 915.482 4736.4 909.407 4736.4 903.332 4741.33 898.407 4747.4 898.407 4753.48 898.407 4758.4 903.332 4758.4 909.407Z" stroke="#5B9BD5" stroke-width="3.4375" stroke-linejoin="round" stroke-miterlimit="10" fill="#5B9BD5"/><path d="M4882.4 986.407C4882.4 992.482 4877.48 997.407 4871.4 997.407 4865.33 997.407 4860.4 992.482 4860.4 986.407 4860.4 980.332 4865.33 975.407 4871.4 975.407 4877.48 975.407 4882.4 980.332 4882.4 986.407Z" stroke="#5B9BD5" stroke-width="3.4375" stroke-linejoin="round" stroke-miterlimit="10" fill="#5B9BD5"/><path d="M5006.4 1013.41C5006.4 1019.48 5001.48 1024.41 4995.4 1024.41 4989.33 1024.41 4984.4 1019.48 4984.4 1013.41 4984.4 1007.33 4989.33 1002.41 4995.4 1002.41 5001.48 1002.41 5006.4 1007.33 5006.4 1013.41Z" stroke="#5B9BD5" stroke-width="3.4375" stroke-linejoin="round" stroke-miterlimit="10" fill="#5B9BD5"/><path d="M5131.4 1052.41C5131.4 1058.48 5126.48 1063.41 5120.4 1063.41 5114.33 1063.41 5109.4 1058.48 5109.4 1052.41 5109.4 1046.33 5114.33 1041.41 5120.4 1041.41 5126.48 1041.41 5131.4 1046.33 5131.4 1052.41Z" stroke="#5B9BD5" stroke-width="3.4375" stroke-linejoin="round" stroke-miterlimit="10" fill="#5B9BD5"/><path d="M5255.4 1068.41C5255.4 1074.48 5250.48 1079.41 5244.4 1079.41 5238.33 1079.41 5233.4 1074.48 5233.4 1068.41 5233.4 1062.33 5238.33 1057.41 5244.4 1057.41 5250.48 1057.41 5255.4 1062.33 5255.4 1068.41Z" stroke="#5B9BD5" stroke-width="3.4375" stroke-linejoin="round" stroke-miterlimit="10" fill="#5B9BD5"/><path d="M5379.4 1090.41C5379.4 1096.48 5374.48 1101.41 5368.4 1101.41 5362.33 1101.41 5357.4 1096.48 5357.4 1090.41 5357.4 1084.33 5362.33 1079.41 5368.4 1079.41 5374.48 1079.41 5379.4 1084.33 5379.4 1090.41Z" stroke="#5B9BD5" stroke-width="3.4375" stroke-linejoin="round" stroke-miterlimit="10" fill="#5B9BD5"/></g><g clip-path="url(#clip7)"><text fill="#595959" font-family="Calibri,Calibri_MSFontService,sans-serif" font-weight="400" font-size="41" transform="matrix(1 0 0 1 3943.91 1113)">0</text></g><g clip-path="url(#clip8)"><text fill="#595959" font-family="Calibri,Calibri_MSFontService,sans-serif" font-weight="400" font-size="41" transform="matrix(1 0 0 1 3923.01 1003)">20</text></g><g clip-path="url(#clip9)"><text fill="#595959" font-family="Calibri,Calibri_MSFontService,sans-serif" font-weight="400" font-size="41" transform="matrix(1 0 0 1 3923.01 894)">40</text></g><g clip-path="url(#clip10)"><text fill="#595959" font-family="Calibri,Calibri_MSFontService,sans-serif" font-weight="400" font-size="41" transform="matrix(1 0 0 1 3923.01 784)">60</text></g><g clip-path="url(#clip11)"><text fill="#595959" font-family="Calibri,Calibri_MSFontService,sans-serif" font-weight="400" font-size="41" transform="matrix(1 0 0 1 3923.01 674)">80</text></g><g clip-path="url(#clip12)"><text fill="#595959" font-family="Calibri,Calibri_MSFontService,sans-serif" font-weight="400" font-size="41" transform="matrix(1 0 0 1 3902.11 564)">100</text></g><g clip-path="url(#clip13)"><text fill="#595959" font-family="Calibri,Calibri_MSFontService,sans-serif" font-weight="400" font-size="41" transform="matrix(1 0 0 1 3902.11 454)">120</text></g><g clip-path="url(#clip14)"><text fill="#595959" font-family="Calibri,Calibri_MSFontService,sans-serif" font-weight="400" font-size="41" transform="matrix(1 0 0 1 3902.11 344)">140</text></g><g clip-path="url(#clip15)"><text fill="#595959" font-family="Calibri,Calibri_MSFontService,sans-serif" font-weight="400" font-size="41" transform="matrix(1 0 0 1 3992.63 1167)">0</text></g><g clip-path="url(#clip16)"><text fill="#595959" font-family="Calibri,Calibri_MSFontService,sans-serif" font-weight="400" font-size="41" transform="matrix(1 0 0 1 4189.02 1167)">10</text></g><g clip-path="url(#clip17)"><text fill="#595959" font-family="Calibri,Calibri_MSFontService,sans-serif" font-weight="400" font-size="41" transform="matrix(1 0 0 1 4395.87 1167)">20</text></g><g clip-path="url(#clip18)"><text fill="#595959" font-family="Calibri,Calibri_MSFontService,sans-serif" font-weight="400" font-size="41" transform="matrix(1 0 0 1 4602.72 1167)">30</text></g><g clip-path="url(#clip19)"><text fill="#595959" font-family="Calibri,Calibri_MSFontService,sans-serif" font-weight="400" font-size="41" transform="matrix(1 0 0 1 4809.56 1167)">40</text></g><g clip-path="url(#clip20)"><text fill="#595959" font-family="Calibri,Calibri_MSFontService,sans-serif" font-weight="400" font-size="41" transform="matrix(1 0 0 1 5016.41 1167)">50</text></g><g clip-path="url(#clip21)"><text fill="#595959" font-family="Calibri,Calibri_MSFontService,sans-serif" font-weight="400" font-size="41" transform="matrix(1 0 0 1 5223.26 1167)">60</text></g><g clip-path="url(#clip22)"><text fill="#595959" font-family="Calibri,Calibri_MSFontService,sans-serif" font-weight="400" font-size="41" transform="matrix(1 0 0 1 5430.1 1167)">70</text></g><g clip-path="url(#clip23)"><text fill="#595959" font-family="Calibri,Calibri_MSFontService,sans-serif" font-weight="400" font-size="64" transform="matrix(1 0 0 1 4533.84 304)">q(6,t)(</text></g><g clip-path="url(#clip24)"><text fill="#595959" font-family="Calibri,Calibri_MSFontService,sans-serif" font-weight="400" font-size="64" transform="matrix(1 0 0 1 4694.6 304)">Δ</text></g><g clip-path="url(#clip25)"><text fill="#595959" font-family="Calibri,Calibri_MSFontService,sans-serif" font-weight="400" font-size="64" transform="matrix(1 0 0 1 4730.81 304)">t=6h)</text></g><rect x="3877.5" y="218.5" width="1650" height="990" stroke="#D9D9D9" stroke-width="3.4375" stroke-linejoin="round" stroke-miterlimit="10" fill="none"/></g></svg>