<svg width="1653" height="993" xmlns="http://www.w3.org/2000/svg" xmlns:xlink="http://www.w3.org/1999/xlink" xml:space="preserve" overflow="hidden"><defs><clipPath id="clip0"><rect x="2362" y="1335" width="1653" height="993"/></clipPath><clipPath id="clip1"><rect x="2362" y="1335" width="1650" height="990"/></clipPath><clipPath id="clip2"><rect x="2362" y="1335" width="1650" height="990"/></clipPath><clipPath id="clip3"><rect x="2362" y="1335" width="1650" height="990"/></clipPath><clipPath id="clip4"><rect x="2362" y="1335" width="1650" height="990"/></clipPath><clipPath id="clip5"><rect x="2493" y="1445" width="1452" height="760"/></clipPath><clipPath id="clip6"><rect x="2493" y="1445" width="1452" height="760"/></clipPath><clipPath id="clip7"><rect x="2362" y="1335" width="1650" height="990"/></clipPath><clipPath id="clip8"><rect x="2362" y="1335" width="1650" height="990"/></clipPath><clipPath id="clip9"><rect x="2565" y="2238" width="90" height="65"/></clipPath><clipPath id="clip10"><rect x="2362" y="1335" width="1650" height="990"/></clipPath><clipPath id="clip11"><rect x="2565" y="2238" width="90" height="65"/></clipPath><clipPath id="clip12"><rect x="2362" y="1335" width="1650" height="990"/></clipPath><clipPath id="clip13"><rect x="2565" y="2238" width="90" height="65"/></clipPath><clipPath id="clip14"><rect x="2362" y="1335" width="1650" height="990"/></clipPath><clipPath id="clip15"><rect x="2362" y="1335" width="1650" height="990"/></clipPath><clipPath id="clip16"><rect x="2362" y="1335" width="1650" height="990"/></clipPath><clipPath id="clip17"><rect x="2362" y="1335" width="1650" height="990"/></clipPath><clipPath id="clip18"><rect x="2362" y="1335" width="1650" height="990"/></clipPath><clipPath id="clip19"><rect x="2362" y="1335" width="1650" height="990"/></clipPath><clipPath id="clip20"><rect x="2362" y="1335" width="1650" height="990"/></clipPath><clipPath id="clip21"><rect x="2362" y="1335" width="1650" height="990"/></clipPath><clipPath id="clip22"><rect x="2362" y="1335" width="1650" height="990"/></clipPath><clipPath id="clip23"><rect x="2362" y="1335" width="1650" height="990"/></clipPath><clipPath id="clip24"><rect x="2362" y="1335" width="1650" height="990"/></clipPath><clipPath id="clip25"><rect x="2362" y="1335" width="1650" height="990"/></clipPath><clipPath id="clip26"><rect x="2362" y="1335" width="1650" height="990"/></clipPath><clipPath id="clip27"><rect x="2362" y="1335" width="1650" height="990"/></clipPath><clipPath id="clip28"><rect x="2362" y="1335" width="1650" height="990"/></clipPath><clipPath id="clip29"><rect x="2362" y="1335" width="1650" height="990"/></clipPath><clipPath id="clip30"><rect x="2362" y="1335" width="1650" height="990"/></clipPath><clipPath id="clip31"><rect x="2362" y="1335" width="1650" height="990"/></clipPath><clipPath id="clip32"><rect x="2362" y="1335" width="1650" height="990"/></clipPath><clipPath id="clip33"><rect x="2362" y="1335" width="1650" height="990"/></clipPath><clipPath id="clip34"><rect x="2362" y="1335" width="1650" height="990"/></clipPath><clipPath id="clip35"><rect x="2362" y="1335" width="1650" height="990"/></clipPath><clipPath id="clip36"><rect x="2362" y="1335" width="1650" height="990"/></clipPath><clipPath id="clip37"><rect x="2362" y="1335" width="1650" height="990"/></clipPath></defs><g clip-path="url(#clip0)" transform="translate(-2362 -1335)"><rect x="2363" y="1336" width="1650" height="990" fill="#FFFFFF"/><g clip-path="url(#clip1)"><path d="M2493.5 2117.57 3941.5 2117.57M2493.5 2033.57 3941.5 2033.57M2493.5 1949.56 3941.5 1949.56M2493.5 1865.56 3941.5 1865.56M2493.5 1781.56 3941.5 1781.56M2493.5 1697.56 3941.5 1697.56M2493.5 1613.55 3941.5 1613.55M2493.5 1529.55 3941.5 1529.55M2493.5 1445.5 3941.5 1445.5" stroke="#D9D9D9" stroke-width="3.4375" stroke-linejoin="round" stroke-miterlimit="10" fill="none"/></g><g clip-path="url(#clip2)"><path d="M2700.59 1445.5 2700.59 2201.5M2907.6 1445.5 2907.6 2201.5M3114.6 1445.5 3114.6 2201.5M3320.61 1445.5 3320.61 2201.5M3527.62 1445.5 3527.62 2201.5M3734.62 1445.5 3734.62 2201.5M3941.5 1445.5 3941.5 2201.5" stroke="#D9D9D9" stroke-width="3.4375" stroke-linejoin="round" stroke-miterlimit="10" fill="none"/></g><g clip-path="url(#clip3)"><path d="M0 0 0.000360892 756" stroke="#BFBFBF" stroke-width="3.4375" stroke-linejoin="round" stroke-miterlimit="10" fill="none" fill-rule="evenodd" transform="matrix(1 0 0 -1 2493.5 2201.5)"/></g><g clip-path="url(#clip4)"><path d="M2493.5 2201.5 3941.5 2201.5" stroke="#BFBFBF" stroke-width="3.4375" stroke-linejoin="round" stroke-miterlimit="10" fill="none" fill-rule="evenodd"/></g><g clip-path="url(#clip5)"><path d="M2493.5 2201.5C2514.18 2200.38 2534.86 2200.8 2555.54 2198.14 2576.22 2195.48 2596.91 2191.98 2617.59 2185.53 2638.27 2179.09 2658.95 2176.29 2679.63 2159.48 2700.31 2142.68 2720.99 2115.79 2741.67 2084.69 2762.35 2053.6 2783.04 2010.88 2803.72 1972.93 2824.4 1934.97 2845.08 1890.85 2865.76 1856.96 2886.44 1823.07 2907.12 1795.48 2927.8 1769.57 2948.49 1743.65 2969.17 1722.23 2989.85 1701.5 3010.53 1680.77 3031.21 1661.3 3051.89 1645.2 3072.57 1629.09 3093.25 1616.9 3113.93 1604.86 3134.62 1592.81 3155.3 1582.73 3175.98 1572.93 3196.66 1563.12 3217.34 1553.74 3238.02 1546.04 3258.7 1538.33 3279.38 1532.45 3300.06 1526.71 3320.75 1520.97 3341.43 1516.48 3362.11 1511.58 3382.79 1506.68 3403.47 1501.64 3424.15 1497.3 3444.83 1492.95 3465.51 1488.89 3486.2 1485.53 3506.88 1482.17 3527.56 1479.51 3548.24 1477.13 3568.92 1474.75 3589.6 1473.21 3610.28 1471.25 3630.96 1469.28 3651.64 1467.04 3672.33 1465.36 3693.01 1463.68 3713.69 1462.14 3734.37 1461.16 3755.05 1460.18 3775.73 1459.9 3796.41 1459.48 3817.09 1459.06 3837.77 1458.78 3858.46 1458.64 3879.14 1458.5 3899.82 1458.64 3920.5 1458.64" stroke="#5B9BD5" stroke-width="6.875" stroke-linecap="round" stroke-linejoin="round" stroke-miterlimit="10" fill="none"/></g><g clip-path="url(#clip6)"><path d="M2617.5 2201.5C2627.84 2200.94 2658.86 2200.8 2679.55 2198.14 2700.23 2195.48 2720.91 2191.98 2741.6 2185.53 2762.28 2179.09 2782.96 2176.29 2803.64 2159.48 2824.33 2142.68 2845.01 2115.79 2865.69 2084.7 2886.37 2053.6 2907.06 2010.89 2927.74 1972.93 2948.42 1934.98 2969.1 1890.86 2989.79 1856.97 3010.47 1823.08 3031.15 1795.49 3051.83 1769.58 3072.52 1743.67 3093.2 1722.24 3113.88 1701.51 3134.56 1680.78 3155.25 1661.32 3175.93 1645.21 3196.61 1629.1 3217.29 1616.92 3237.98 1604.88 3258.66 1592.83 3279.34 1582.75 3300.02 1572.94 3320.71 1563.14 3341.39 1553.76 3362.07 1546.05 3382.75 1538.35 3403.44 1532.47 3424.12 1526.73 3444.8 1520.98 3465.48 1516.5 3486.17 1511.6 3506.85 1506.7 3527.53 1501.66 3548.21 1497.31 3568.9 1492.97 3589.58 1488.91 3610.26 1485.55 3630.94 1482.19 3651.63 1479.53 3672.31 1477.15 3692.99 1474.77 3713.67 1473.23 3734.36 1471.26 3755.04 1469.3 3775.72 1467.06 3796.4 1465.38 3817.09 1463.7 3837.77 1462.16 3858.45 1461.18 3879.13 1460.2 3899.82 1460.06 3920.5 1459.5" stroke="#ED7D31" stroke-width="6.875" stroke-linecap="round" stroke-linejoin="round" stroke-miterlimit="10" fill="none"/></g><g clip-path="url(#clip7)"><path d="M2565.5 2238.5 2617.42 2238.5 2617.75 2202.52 2639.67 2238.5 2654.5 2238.5 2654.5 2249.17 2654.5 2249.17 2654.5 2265.17 2654.5 2302.5 2639.67 2302.5 2617.42 2302.5 2617.42 2302.5 2565.5 2302.5 2565.5 2265.17 2565.5 2249.17 2565.5 2249.17Z" stroke="#BFBFBF" stroke-width="3.4375" stroke-linejoin="round" stroke-miterlimit="10" fill="#FFFFFF" fill-rule="evenodd"/></g><g clip-path="url(#clip8)"><g clip-path="url(#clip9)"><text fill="#595959" font-family="Calibri,Calibri_MSFontService,sans-serif" font-weight="400" font-size="41" transform="matrix(1 0 0 1 2579.25 2284)">6</text></g></g><g clip-path="url(#clip10)"><g clip-path="url(#clip11)"><text fill="#595959" font-family="Calibri,Calibri_MSFontService,sans-serif" font-weight="400" font-size="41" transform="matrix(1 0 0 1 2600.15 2284)">, </text></g></g><g clip-path="url(#clip12)"><g clip-path="url(#clip13)"><text fill="#595959" font-family="Calibri,Calibri_MSFontService,sans-serif" font-weight="400" font-size="41" transform="matrix(1 0 0 1 2619.77 2284)">0</text></g></g><g clip-path="url(#clip14)"><text fill="#595959" font-family="Calibri,Calibri_MSFontService,sans-serif" font-weight="400" font-size="41" transform="matrix(1 0 0 1 2434.5 2213)">0</text></g><g clip-path="url(#clip15)"><text fill="#595959" font-family="Calibri,Calibri_MSFontService,sans-serif" font-weight="400" font-size="41" transform="matrix(1 0 0 1 2392.7 2129)">100</text></g><g clip-path="url(#clip16)"><text fill="#595959" font-family="Calibri,Calibri_MSFontService,sans-serif" font-weight="400" font-size="41" transform="matrix(1 0 0 1 2392.7 2045)">200</text></g><g clip-path="url(#clip17)"><text fill="#595959" font-family="Calibri,Calibri_MSFontService,sans-serif" font-weight="400" font-size="41" transform="matrix(1 0 0 1 2392.7 1961)">300</text></g><g clip-path="url(#clip18)"><text fill="#595959" font-family="Calibri,Calibri_MSFontService,sans-serif" font-weight="400" font-size="41" transform="matrix(1 0 0 1 2392.7 1877)">400</text></g><g clip-path="url(#clip19)"><text fill="#595959" font-family="Calibri,Calibri_MSFontService,sans-serif" font-weight="400" font-size="41" transform="matrix(1 0 0 1 2392.7 1793)">500</text></g><g clip-path="url(#clip20)"><text fill="#595959" font-family="Calibri,Calibri_MSFontService,sans-serif" font-weight="400" font-size="41" transform="matrix(1 0 0 1 2392.7 1709)">600</text></g><g clip-path="url(#clip21)"><text fill="#595959" font-family="Calibri,Calibri_MSFontService,sans-serif" font-weight="400" font-size="41" transform="matrix(1 0 0 1 2392.7 1625)">700</text></g><g clip-path="url(#clip22)"><text fill="#595959" font-family="Calibri,Calibri_MSFontService,sans-serif" font-weight="400" font-size="41" transform="matrix(1 0 0 1 2392.7 1541)">800</text></g><g clip-path="url(#clip23)"><text fill="#595959" font-family="Calibri,Calibri_MSFontService,sans-serif" font-weight="400" font-size="41" transform="matrix(1 0 0 1 2392.7 1457)">900</text></g><g clip-path="url(#clip24)"><text fill="#595959" font-family="Calibri,Calibri_MSFontService,sans-serif" font-weight="400" font-size="41" transform="matrix(1 0 0 1 2483.22 2267)">0</text></g><g clip-path="url(#clip25)"><text fill="#595959" font-family="Calibri,Calibri_MSFontService,sans-serif" font-weight="400" font-size="41" transform="matrix(1 0 0 1 2679.61 2267)">10</text></g><g clip-path="url(#clip26)"><text fill="#595959" font-family="Calibri,Calibri_MSFontService,sans-serif" font-weight="400" font-size="41" transform="matrix(1 0 0 1 2886.46 2267)">20</text></g><g clip-path="url(#clip27)"><text fill="#595959" font-family="Calibri,Calibri_MSFontService,sans-serif" font-weight="400" font-size="41" transform="matrix(1 0 0 1 3093.31 2267)">30</text></g><g clip-path="url(#clip28)"><text fill="#595959" font-family="Calibri,Calibri_MSFontService,sans-serif" font-weight="400" font-size="41" transform="matrix(1 0 0 1 3300.15 2267)">40</text></g><g clip-path="url(#clip29)"><text fill="#595959" font-family="Calibri,Calibri_MSFontService,sans-serif" font-weight="400" font-size="41" transform="matrix(1 0 0 1 3507 2267)">50</text></g><g clip-path="url(#clip30)"><text fill="#595959" font-family="Calibri,Calibri_MSFontService,sans-serif" font-weight="400" font-size="41" transform="matrix(1 0 0 1 3713.84 2267)">60</text></g><g clip-path="url(#clip31)"><text fill="#595959" font-family="Calibri,Calibri_MSFontService,sans-serif" font-weight="400" font-size="41" transform="matrix(1 0 0 1 3920.69 2267)">70</text></g><g clip-path="url(#clip32)"><text fill="#595959" font-family="Calibri,Calibri_MSFontService,sans-serif" font-weight="400" font-size="64" transform="matrix(1 0 0 1 3108.99 1414)">S</text></g><g clip-path="url(#clip33)"><text fill="#595959" font-family="DengXian,DengXian_MSFontService,sans-serif" font-weight="400" font-size="64" transform="matrix(1 0 0 1 3138.49 1414)">曲线</text></g><g clip-path="url(#clip34)"><path d="M3726.5 2074.5 3814.5 2074.5" stroke="#5B9BD5" stroke-width="6.875" stroke-linecap="round" stroke-linejoin="round" stroke-miterlimit="10" fill="none" fill-rule="evenodd"/></g><g clip-path="url(#clip35)"><text fill="#595959" font-family="Calibri,Calibri_MSFontService,sans-serif" font-weight="400" font-size="41" transform="matrix(1 0 0 1 3823.44 2086)">S(t)</text></g><g clip-path="url(#clip36)"><path d="M3726.5 2156.5 3814.5 2156.5" stroke="#ED7D31" stroke-width="6.875" stroke-linecap="round" stroke-linejoin="round" stroke-miterlimit="10" fill="none" fill-rule="evenodd"/></g><g clip-path="url(#clip37)"><text fill="#595959" font-family="Calibri,Calibri_MSFontService,sans-serif" font-weight="400" font-size="41" transform="matrix(1 0 0 1 3823.44 2168)">S(t-6)</text></g><rect x="2363.5" y="1336.5" width="1650" height="990" stroke="#D9D9D9" stroke-width="3.4375" stroke-linejoin="round" stroke-miterlimit="10" fill="none"/></g></svg>