<svg width="1653" height="993" xmlns="http://www.w3.org/2000/svg" xmlns:xlink="http://www.w3.org/1999/xlink" xml:space="preserve" overflow="hidden"><defs><clipPath id="clip0"><rect x="2326" y="1105" width="1653" height="993"/></clipPath><clipPath id="clip1"><rect x="2327" y="1105" width="1650" height="990"/></clipPath><clipPath id="clip2"><rect x="2327" y="1105" width="1650" height="990"/></clipPath><clipPath id="clip3"><rect x="2327" y="1105" width="1650" height="990"/></clipPath><clipPath id="clip4"><rect x="2327" y="1105" width="1650" height="990"/></clipPath><clipPath id="clip5"><rect x="2457" y="1238" width="1452" height="737"/></clipPath><clipPath id="clip6"><rect x="2457" y="1238" width="1452" height="737"/></clipPath><clipPath id="clip7"><rect x="2327" y="1105" width="1650" height="990"/></clipPath><clipPath id="clip8"><rect x="2327" y="1105" width="1650" height="990"/></clipPath><clipPath id="clip9"><rect x="2529" y="2007" width="90" height="66"/></clipPath><clipPath id="clip10"><rect x="2327" y="1105" width="1650" height="990"/></clipPath><clipPath id="clip11"><rect x="2529" y="2007" width="90" height="66"/></clipPath><clipPath id="clip12"><rect x="2327" y="1105" width="1650" height="990"/></clipPath><clipPath id="clip13"><rect x="2529" y="2007" width="90" height="66"/></clipPath><clipPath id="clip14"><rect x="2327" y="1105" width="1650" height="990"/></clipPath><clipPath id="clip15"><rect x="2327" y="1105" width="1650" height="990"/></clipPath><clipPath id="clip16"><rect x="2327" y="1105" width="1650" height="990"/></clipPath><clipPath id="clip17"><rect x="2327" y="1105" width="1650" height="990"/></clipPath><clipPath id="clip18"><rect x="2327" y="1105" width="1650" height="990"/></clipPath><clipPath id="clip19"><rect x="2327" y="1105" width="1650" height="990"/></clipPath><clipPath id="clip20"><rect x="2327" y="1105" width="1650" height="990"/></clipPath><clipPath id="clip21"><rect x="2327" y="1105" width="1650" height="990"/></clipPath><clipPath id="clip22"><rect x="2327" y="1105" width="1650" height="990"/></clipPath><clipPath id="clip23"><rect x="2327" y="1105" width="1650" height="990"/></clipPath><clipPath id="clip24"><rect x="2327" y="1105" width="1650" height="990"/></clipPath><clipPath id="clip25"><rect x="2327" y="1105" width="1650" height="990"/></clipPath><clipPath id="clip26"><rect x="2327" y="1105" width="1650" height="990"/></clipPath><clipPath id="clip27"><rect x="2327" y="1105" width="1650" height="990"/></clipPath><clipPath id="clip28"><rect x="2327" y="1105" width="1650" height="990"/></clipPath><clipPath id="clip29"><rect x="2327" y="1105" width="1650" height="990"/></clipPath><clipPath id="clip30"><rect x="2327" y="1105" width="1650" height="990"/></clipPath><clipPath id="clip31"><rect x="2327" y="1105" width="1650" height="990"/></clipPath><clipPath id="clip32"><rect x="2327" y="1105" width="1650" height="990"/></clipPath><clipPath id="clip33"><rect x="2327" y="1105" width="1650" height="990"/></clipPath><clipPath id="clip34"><rect x="2327" y="1105" width="1650" height="990"/></clipPath><clipPath id="clip35"><rect x="2327" y="1105" width="1650" height="990"/></clipPath><clipPath id="clip36"><rect x="2327" y="1105" width="1650" height="990"/></clipPath><clipPath id="clip37"><rect x="2327" y="1105" width="1650" height="990"/></clipPath></defs><g clip-path="url(#clip0)" transform="translate(-2326 -1105)"><rect x="2327" y="1106" width="1650" height="990" fill="#FFFFFF"/><g clip-path="url(#clip1)"><path d="M2457.5 1890.56 3905.5 1890.56M2457.5 1808.56 3905.5 1808.56M2457.5 1727.56 3905.5 1727.56M2457.5 1645.55 3905.5 1645.55M2457.5 1564.55 3905.5 1564.55M2457.5 1482.55 3905.5 1482.55M2457.5 1401.55 3905.5 1401.55M2457.5 1319.54 3905.5 1319.54M2457.5 1238.5 3905.5 1238.5" stroke="#D9D9D9" stroke-width="3.4375" stroke-linejoin="round" stroke-miterlimit="10" fill="none"/></g><g clip-path="url(#clip2)"><path d="M2664.59 1238.5 2664.59 1971.5M2871.59 1238.5 2871.59 1971.5M3078.6 1238.5 3078.6 1971.5M3285.61 1238.5 3285.61 1971.5M3491.61 1238.5 3491.61 1971.5M3698.62 1238.5 3698.62 1971.5M3905.5 1238.5 3905.5 1971.5" stroke="#D9D9D9" stroke-width="3.4375" stroke-linejoin="round" stroke-miterlimit="10" fill="none"/></g><g clip-path="url(#clip3)"><path d="M0 0 0.000360892 733" stroke="#BFBFBF" stroke-width="3.4375" stroke-linejoin="round" stroke-miterlimit="10" fill="none" fill-rule="evenodd" transform="matrix(1 0 0 -1 2457.5 1971.5)"/></g><g clip-path="url(#clip4)"><path d="M2457.5 1971.5 3905.5 1971.5" stroke="#BFBFBF" stroke-width="3.4375" stroke-linejoin="round" stroke-miterlimit="10" fill="none" fill-rule="evenodd"/></g><g clip-path="url(#clip5)"><path d="M2457.5 1971.5C2478.2 1970.41 2498.89 1970.82 2519.59 1968.24 2540.28 1965.66 2560.98 1962.27 2581.67 1956.03 2602.37 1949.78 2623.06 1947.07 2643.76 1930.78 2664.46 1914.5 2685.15 1888.44 2705.85 1858.31 2726.54 1828.18 2747.24 1786.78 2767.93 1750 2788.63 1713.22 2809.33 1670.47 2830.02 1637.63 2850.72 1604.78 2871.41 1578.04 2892.11 1552.94 2912.8 1527.83 2933.5 1507.06 2954.2 1486.98 2974.89 1466.89 2995.59 1448.02 3016.28 1432.42 3036.98 1416.81 3057.67 1405 3078.37 1393.33 3099.07 1381.66 3119.76 1371.88 3140.46 1362.38 3161.15 1352.88 3181.85 1343.79 3202.54 1336.33 3223.24 1328.86 3243.93 1323.16 3264.63 1317.6 3285.33 1312.03 3306.02 1307.69 3326.72 1302.94 3347.41 1298.19 3368.11 1293.3 3388.8 1289.1 3409.5 1284.89 3430.2 1280.95 3450.89 1277.69 3471.59 1274.44 3492.28 1271.86 3512.98 1269.55 3533.67 1267.24 3554.37 1265.75 3575.07 1263.85 3595.76 1261.95 3616.46 1259.78 3637.15 1258.15 3657.85 1256.52 3678.54 1255.03 3699.24 1254.08 3719.93 1253.13 3740.63 1252.86 3761.33 1252.45 3782.02 1252.04 3802.72 1251.77 3823.41 1251.64 3844.11 1251.5 3864.8 1251.64 3885.5 1251.64" stroke="#5B9BD5" stroke-width="6.875" stroke-linecap="round" stroke-linejoin="round" stroke-miterlimit="10" fill="none"/></g><g clip-path="url(#clip6)"><path d="M2581.5 1971.5C2591.85 1970.96 2622.9 1970.82 2643.59 1968.24 2664.29 1965.66 2684.99 1962.27 2705.69 1956.03 2726.39 1949.79 2747.09 1947.07 2767.79 1930.79 2788.48 1914.5 2809.18 1888.44 2829.88 1858.32 2850.58 1828.19 2871.28 1786.8 2891.98 1750.02 2912.67 1713.24 2933.37 1670.49 2954.07 1637.65 2974.77 1604.81 2995.47 1578.07 3016.17 1552.97 3036.86 1527.86 3057.56 1507.09 3078.26 1487.01 3098.96 1466.92 3119.66 1448.06 3140.36 1432.45 3161.06 1416.85 3181.75 1405.04 3202.45 1393.37 3223.15 1381.7 3243.85 1371.93 3264.55 1362.43 3285.25 1352.93 3305.94 1343.83 3326.64 1336.37 3347.34 1328.91 3368.04 1323.21 3388.74 1317.64 3409.44 1312.08 3430.13 1307.73 3450.83 1302.98 3471.53 1298.23 3492.23 1293.35 3512.93 1289.14 3533.63 1284.94 3554.32 1281 3575.02 1277.74 3595.72 1274.49 3616.42 1271.91 3637.12 1269.6 3657.82 1267.29 3678.52 1265.8 3699.21 1263.9 3719.91 1262 3740.61 1259.83 3761.31 1258.2 3782.01 1256.57 3802.71 1255.08 3823.4 1254.13 3844.1 1253.18 3864.8 1253.04 3885.5 1252.5" stroke="#ED7D31" stroke-width="6.875" stroke-linecap="round" stroke-linejoin="round" stroke-miterlimit="10" fill="none"/></g><g clip-path="url(#clip7)"><path d="M2529.5 2007.5 2581.42 2007.5 2581.75 1970.96 2603.67 2007.5 2618.5 2007.5 2618.5 2018.33 2618.5 2018.33 2618.5 2034.58 2618.5 2072.5 2603.67 2072.5 2581.42 2072.5 2581.42 2072.5 2529.5 2072.5 2529.5 2034.58 2529.5 2018.33 2529.5 2018.33Z" stroke="#BFBFBF" stroke-width="3.4375" stroke-linejoin="round" stroke-miterlimit="10" fill="#FFFFFF" fill-rule="evenodd"/></g><g clip-path="url(#clip8)"><g clip-path="url(#clip9)"><text fill="#595959" font-family="Calibri,Calibri_MSFontService,sans-serif" font-weight="400" font-size="41" transform="matrix(1 0 0 1 2543.38 2054)">6</text></g></g><g clip-path="url(#clip10)"><g clip-path="url(#clip11)"><text fill="#595959" font-family="Calibri,Calibri_MSFontService,sans-serif" font-weight="400" font-size="41" transform="matrix(1 0 0 1 2564.28 2054)">, </text></g></g><g clip-path="url(#clip12)"><g clip-path="url(#clip13)"><text fill="#595959" font-family="Calibri,Calibri_MSFontService,sans-serif" font-weight="400" font-size="41" transform="matrix(1 0 0 1 2583.9 2054)">0</text></g></g><g clip-path="url(#clip14)"><text fill="#595959" font-family="Calibri,Calibri_MSFontService,sans-serif" font-weight="400" font-size="41" transform="matrix(1 0 0 1 2398.63 1983)">0</text></g><g clip-path="url(#clip15)"><text fill="#595959" font-family="Calibri,Calibri_MSFontService,sans-serif" font-weight="400" font-size="41" transform="matrix(1 0 0 1 2356.83 1902)">100</text></g><g clip-path="url(#clip16)"><text fill="#595959" font-family="Calibri,Calibri_MSFontService,sans-serif" font-weight="400" font-size="41" transform="matrix(1 0 0 1 2356.83 1820)">200</text></g><g clip-path="url(#clip17)"><text fill="#595959" font-family="Calibri,Calibri_MSFontService,sans-serif" font-weight="400" font-size="41" transform="matrix(1 0 0 1 2356.83 1739)">300</text></g><g clip-path="url(#clip18)"><text fill="#595959" font-family="Calibri,Calibri_MSFontService,sans-serif" font-weight="400" font-size="41" transform="matrix(1 0 0 1 2356.83 1657)">400</text></g><g clip-path="url(#clip19)"><text fill="#595959" font-family="Calibri,Calibri_MSFontService,sans-serif" font-weight="400" font-size="41" transform="matrix(1 0 0 1 2356.83 1576)">500</text></g><g clip-path="url(#clip20)"><text fill="#595959" font-family="Calibri,Calibri_MSFontService,sans-serif" font-weight="400" font-size="41" transform="matrix(1 0 0 1 2356.83 1494)">600</text></g><g clip-path="url(#clip21)"><text fill="#595959" font-family="Calibri,Calibri_MSFontService,sans-serif" font-weight="400" font-size="41" transform="matrix(1 0 0 1 2356.83 1413)">700</text></g><g clip-path="url(#clip22)"><text fill="#595959" font-family="Calibri,Calibri_MSFontService,sans-serif" font-weight="400" font-size="41" transform="matrix(1 0 0 1 2356.83 1331)">800</text></g><g clip-path="url(#clip23)"><text fill="#595959" font-family="Calibri,Calibri_MSFontService,sans-serif" font-weight="400" font-size="41" transform="matrix(1 0 0 1 2356.83 1250)">900</text></g><g clip-path="url(#clip24)"><text fill="#595959" font-family="Calibri,Calibri_MSFontService,sans-serif" font-weight="400" font-size="41" transform="matrix(1 0 0 1 2447.35 2037)">0</text></g><g clip-path="url(#clip25)"><text fill="#595959" font-family="Calibri,Calibri_MSFontService,sans-serif" font-weight="400" font-size="41" transform="matrix(1 0 0 1 2643.74 2037)">10</text></g><g clip-path="url(#clip26)"><text fill="#595959" font-family="Calibri,Calibri_MSFontService,sans-serif" font-weight="400" font-size="41" transform="matrix(1 0 0 1 2850.59 2037)">20</text></g><g clip-path="url(#clip27)"><text fill="#595959" font-family="Calibri,Calibri_MSFontService,sans-serif" font-weight="400" font-size="41" transform="matrix(1 0 0 1 3057.44 2037)">30</text></g><g clip-path="url(#clip28)"><text fill="#595959" font-family="Calibri,Calibri_MSFontService,sans-serif" font-weight="400" font-size="41" transform="matrix(1 0 0 1 3264.28 2037)">40</text></g><g clip-path="url(#clip29)"><text fill="#595959" font-family="Calibri,Calibri_MSFontService,sans-serif" font-weight="400" font-size="41" transform="matrix(1 0 0 1 3471.13 2037)">50</text></g><g clip-path="url(#clip30)"><text fill="#595959" font-family="Calibri,Calibri_MSFontService,sans-serif" font-weight="400" font-size="41" transform="matrix(1 0 0 1 3677.97 2037)">60</text></g><g clip-path="url(#clip31)"><text fill="#595959" font-family="Calibri,Calibri_MSFontService,sans-serif" font-weight="400" font-size="41" transform="matrix(1 0 0 1 3884.82 2037)">70</text></g><g clip-path="url(#clip32)"><text fill="#595959" font-family="Calibri,Calibri_MSFontService,sans-serif" font-weight="400" font-size="64" transform="matrix(1 0 0 1 3073.12 1202)">S</text></g><g clip-path="url(#clip33)"><text fill="#595959" font-family="DengXian,DengXian_MSFontService,sans-serif" font-weight="400" font-size="64" transform="matrix(1 0 0 1 3102.62 1202)">曲线</text></g><g clip-path="url(#clip34)"><path d="M3690.5 1844.5 3778.5 1844.5" stroke="#5B9BD5" stroke-width="6.875" stroke-linecap="round" stroke-linejoin="round" stroke-miterlimit="10" fill="none" fill-rule="evenodd"/></g><g clip-path="url(#clip35)"><text fill="#595959" font-family="Calibri,Calibri_MSFontService,sans-serif" font-weight="400" font-size="41" transform="matrix(1 0 0 1 3787.57 1856)">S(t)</text></g><g clip-path="url(#clip36)"><path d="M3690.5 1926.5 3778.5 1926.5" stroke="#ED7D31" stroke-width="6.875" stroke-linecap="round" stroke-linejoin="round" stroke-miterlimit="10" fill="none" fill-rule="evenodd"/></g><g clip-path="url(#clip37)"><text fill="#595959" font-family="Calibri,Calibri_MSFontService,sans-serif" font-weight="400" font-size="41" transform="matrix(1 0 0 1 3787.57 1938)">S(t-6)</text></g><rect x="2327.5" y="1106.5" width="1650" height="990" stroke="#D9D9D9" stroke-width="3.4375" stroke-linejoin="round" stroke-miterlimit="10" fill="none"/></g></svg>